# xmcd
# 
# Track frame offsets:
#     150
#     16420
#     33445
#     45253
#     60400
#     77562
#     92151
#     108084
#     125859
#     140952
# 
# Disc length: 2106
# 
# Revision: 0
# Processed by: cddbd v1.5.2PL0 Copyright (c) Steve Scherf et al.
# Submitted via: fre:ac v1.0.31
# 
DISCID=7e08380a
DTITLE=Ruth Wyand - Through the BottleNeck
DYEAR=0
DGENRE=Blues
TTITLE0=He Took The Caty
TTITLE1=Dark End Of The Street
TTITLE2=Blame Yourself Blues
TTITLE3=Rollin' and Tumblin'
TTITLE4=Who Will Comfort Me
TTITLE5=Love Politician
TTITLE6=Today Is The Tomorrow I Feared
TTITLE7=God Bless the Child
TTITLE8=The Original Sin
TTITLE9=Been in the Storm So Long
EXTD=
EXTT0=
EXTT1=
EXTT2=
EXTT3=
EXTT4=
EXTT5=
EXTT6=
EXTT7=
EXTT8=
EXTT9=
PLAYORDER=
